#!OML:ASF E:\acrobat2\Project_11_07_03\Capture day 1\Session 1\Acrobat.ASF
:FULLY-SPECIFIED
:DEGREES
361
root 4.96656 4.26967 1.23817 -33.4029 19.3705 -32.8368
lowerback 25.3459 2.60103 7.81387
upperback 8.60666 5.49128 0.217174
thorax -3.73994 2.89845 -5.71051
lowerneck -1.00888 -3.49825 -1.87764
upperneck -8.54471 -4.45335 3.28055
head -2.40434 -2.22913 1.43989
rclavicle 7.71285e-014 -4.45278e-014
rhumerus -1.48761 -17.4168 -9.35049
rradius 20.2829
rwrist 26.0702
rhand -2.34211 -25.9753
rfingers 7.12502
rthumb 23.3452 -54.5796
lclavicle 7.71285e-014 -4.45278e-014
lhumerus -8.62826 -7.41748 45.6817
lradius 26.1945
lwrist -6.25714
lhand -42.033 -27.611
lfingers 7.12502
lthumb -14.9269 1.83117
rfemur -6.37851 -13.9967 -42.8572
rtibia 125.463
rfoot -20.2699 -0.323192
rtoes 18.0654
lfemur -135.344 23.9256 -54.2166
ltibia 146.045
lfoot 6.71551 -13.765
ltoes 35.6936
362
root 5.05915 4.13644 1.297 -34.7567 19.6194 -33.8238
lowerback 25.0963 2.64304 7.77261
upperback 8.61528 5.53625 0.39567
thorax -3.62739 2.92712 -5.48331
lowerneck -1.04969 -3.66532 -1.98474
upperneck -8.33672 -4.69054 3.14574
head -2.322 -2.33976 1.41202
rclavicle 1.39149e-013 -6.36111e-014
rhumerus -2.72684 -18.9341 -8.61836
rradius 19.8209
rwrist 29.0866
rhand -0.859544 -24.8728
rfingers 7.12502
rthumb 24.7668 -53.2893
lclavicle 1.39149e-013 -6.36111e-014
lhumerus -9.86153 -8.21682 45.8402
lradius 29.7334
lwrist -6.6434
lhand -42.5483 -27.8841
lfingers 7.12502
lthumb -15.4233 1.52051
rfemur -6.94993 -12.1533 -40.6768
rtibia 125.274
rfoot -19.8829 -0.759927
rtoes 17.6834
lfemur -135.085 23.5625 -54.847
ltibia 146.825
lfoot 6.76343 -12.9643
ltoes 35.6489
363
root 5.15166 4.00935 1.34704 -36.1094 19.8701 -34.8655
lowerback 24.8258 2.66612 7.82876
upperback 8.63348 5.57981 0.601304
thorax -3.48656 2.95809 -5.27896
lowerneck -0.990515 -3.81703 -2.07158
upperneck -8.21128 -4.91229 2.91604
head -2.28822 -2.44156 1.35473
rclavicle -1.89243e-013 -3.18055e-014
rhumerus -4.11505 -20.5193 -7.81041
rradius 19.3719
rwrist 31.6631
rhand 0.54401 -23.9338
rfingers 7.12502
rthumb 26.1113 -52.1587
lclavicle -1.89243e-013 -3.18055e-014
lhumerus -11.3861 -10.0975 45.8077
lradius 34.0071
lwrist -6.8699
lhand -42.133 -26.6191
lfingers 7.12502
lthumb -15.0232 2.81586
rfemur -7.61304 -10.4435 -38.4002
rtibia 125.104
rfoot -19.5649 -1.23172
rtoes 17.228
lfemur -134.659 23.1473 -55.4543
ltibia 147.447
lfoot 6.78246 -12.0346
ltoes 35.8357
364
root 5.24374 3.88916 1.3883 -37.4789 20.1082 -35.9993
lowerback 24.5357 2.66081 8.01454
upperback 8.66444 5.616 0.830274
thorax -3.31114 2.98963 -5.11791
lowerneck -0.859737 -3.94705 -2.16604
upperneck -8.15044 -5.10402 2.70192
head -2.28927 -2.52887 1.30709
rclavicle 9.06458e-014 -7.95139e-014
rhumerus -5.70204 -21.9388 -6.93309
rradius 18.9638
rwrist 33.4715
rhand 1.58851 -23.3615
rfingers 7.12502
rthumb 27.111 -51.4346
lclavicle 9.06458e-014 -7.95139e-014
lhumerus -12.9342 -12.7112 45.5777
lradius 38.5915
lwrist -7.06834
lhand -41.1001 -24.5877
lfingers 7.12502
lthumb -14.0281 4.9189
rfemur -8.36611 -8.86723 -35.984
rtibia 124.944
rfoot -19.3029 -1.76972
rtoes 16.6785
lfemur -134.097 22.7715 -56.0386
ltibia 147.942
lfoot 6.736 -11.1039
ltoes 36.1365
365
root 5.33468 3.77594 1.42159 -38.8556 20.3665 -37.184
lowerback 24.2185 2.63624 8.2695
upperback 8.71187 5.63816 1.05
thorax -3.09703 3.01868 -4.9991
lowerneck -0.700407 -4.07373 -2.27103
upperneck -8.09769 -5.28454 2.60978
head -2.29541 -2.6137 1.30121
rclavicle 2.06736e-014 -4.13472e-014
rhumerus -7.51869 -23.1039 -6.03442
rradius 18.5887
rwrist 34.4001
rhand 2.06 -23.232
rfingers 7.12502
rthumb 27.562 -51.234
lclavicle 2.06736e-014 -4.13472e-014
lhumerus -14.193 -15.6442 45.1499
lradius 43.0319
lwrist -7.31529
lhand -39.7726 -22.5791
lfingers 7.12502
lthumb -12.7485 7.01174
rfemur -9.20865 -7.41733 -33.5245
rtibia 124.784
rfoot -19.0938 -2.3437
rtoes 15.9399
lfemur -133.399 22.4799 -56.6395
ltibia 148.342
lfoot 6.59505 -10.2677
ltoes 36.4128
366
root 5.42388 3.67006 1.44755 -40.2168 20.697 -38.3523
lowerback 23.865 2.61205 8.48648
upperback 8.77585 5.64298 1.22409
thorax -2.84765 3.04224 -4.90066
lowerneck -0.556214 -4.23227 -2.37699
upperneck -7.98548 -5.49734 2.70414
head -2.27349 -2.7201 1.35357
rclavicle 3.18055e-014 4.13472e-014
rhumerus -9.57612 -24.0649 -5.16677
rradius 18.22
rwrist 34.5633
rhand 1.84561 -23.5235
rfingers 7.12502
rthumb 27.3569 -51.5581
lclavicle 3.18055e-014 4.13472e-014
lhumerus -14.9289 -18.5991 44.5308
lradius 46.9525
lwrist -7.53884
lhand -38.5666 -21.2322
lfingers 7.12502
lthumb -11.5858 8.42756
rfemur -10.1449 -6.10543 -31.1907
rtibia 124.618
rfoot -18.94 -2.88744
rtoes 15.0115
lfemur -132.57 22.3052 -57.309
ltibia 148.672
lfoot 6.41742 -9.58857
ltoes 36.5419
367
root 5.51128 3.57299 1.46627 -41.5556 21.1399 -39.4711
lowerback 23.4699 2.59821 8.55977
upperback 8.85827 5.61904 1.34656
thorax -2.57119 3.05198 -4.76752
lowerneck -0.43615 -4.43636 -2.48614
upperneck -7.80386 -5.76084 2.99324
head -2.21715 -2.85747 1.46667
rclavicle -4.92986e-014 8.5875e-014
rhumerus -11.8325 -24.8887 -4.36935
rradius 17.8411
rwrist 34.1709
rhand 0.972973 -24.1347
rfingers 7.12502
rthumb 26.522 -52.2982
lclavicle -4.92986e-014 8.5875e-014
lhumerus -15.0714 -21.2878 43.761
lradius 50.2381
lwrist -7.79475
lhand -37.4917 -20.3824
lfingers 7.12502
lthumb -10.5489 9.33285
rfemur -11.1715 -4.94832 -29.0902
rtibia 124.429
rfoot -18.8208 -3.34895
rtoes 14.0274
lfemur -131.638 22.3008 -58.077
ltibia 148.954
lfoot 6.35609 -9.10208
ltoes 36.3949
368
root 5.5963 3.48624 1.47817 -42.871 21.7814 -40.4665
lowerback 23.0518 2.60098 8.32049
upperback 8.96969 5.54118 1.41341
thorax -2.28698 3.03026 -4.5065
lowerneck -0.305751 -4.6846 -2.58999
upperneck -7.59721 -6.07906 3.3961
head -2.14866 -3.0256 1.6154
rclavicle -1.86062e-013 5.725e-014
rhumerus -14.2002 -25.6585 -3.66856
rradius 17.4505
rwrist 33.5031
rhand -0.343829 -24.9114
rfingers 7.12502
rthumb 25.261 -53.2591
lclavicle -1.86062e-013 5.725e-014
lhumerus -14.7244 -23.5546 42.9417
lradius 52.9128
lwrist -8.01784
lhand -36.5325 -19.8101
lfingers 7.12502
lthumb -9.62358 9.95012
rfemur -12.2592 -3.95618 -27.4169
rtibia 124.196
rfoot -18.7124 -3.64839
rtoes 13.091
lfemur -130.547 22.4734 -59.0049
ltibia 149.185
lfoot 6.49502 -8.77704
ltoes 35.9068
369
root 5.67869 3.41258 1.48234 -44.185 22.5643 -41.4183
lowerback 22.6447 2.60236 7.79199
upperback 9.08295 5.40267 1.47457
thorax -2.04345 2.96801 -4.0806
lowerneck -0.121809 -4.94517 -2.75779
upperneck -7.38298 -6.41352 3.88949
head -2.08058 -3.20299 1.80593
rclavicle 3.81667e-014 1.59028e-014
rhumerus -16.5861 -26.3449 -3.08931
rradius 17.0669
rwrist 32.7707
rhand -1.76241 -25.7491
rfingers 7.12502
rthumb 23.9013 -54.2817
lclavicle 3.81667e-014 1.59028e-014
lhumerus -14.0888 -25.3766 42.1974
lradius 55.0517
lwrist -8.1321
lhand -35.7005 -19.3575
lfingers 7.12502
lthumb -8.82076 10.4381
rfemur -13.4213 -3.16988 -26.0391
rtibia 123.917
rfoot -18.6452 -3.82316
rtoes 12.299
lfemur -129.384 22.9026 -60.0618
ltibia 149.355
lfoot 6.88839 -8.59747
ltoes 34.9675
370
root 5.75721 3.35253 1.48029 -45.5262 23.5003 -42.2849
lowerback 22.2916 2.60501 6.88939
upperback 9.21405 5.1977 1.542
thorax -1.85031 2.85894 -3.4314
lowerneck 0.189018 -5.1878 -2.98755
upperneck -7.25578 -6.72843 4.38951
head -2.06011 -3.3703 2.01713
rclavicle -6.2816e-014 5.08889e-014
rhumerus -18.8912 -26.9043 -2.67401
rradius 16.6982
rwrist 32.1047
rhand -2.98615 -26.5506
rfingers 7.12502
rthumb 22.7273 -55.232
lclavicle -6.2816e-014 5.08889e-014
lhumerus -13.3251 -26.7596 41.6213
lradius 56.735
lwrist -8.14012
lhand -34.9181 -19.0015
lfingers 7.12502
lthumb -8.06571 10.8246
rfemur -14.6212 -2.54009 -24.993
rtibia 123.573
rfoot -18.6711 -3.87915
rtoes 11.5946
lfemur -128.112 23.6589 -61.2856
ltibia 149.455
lfoot 7.43937 -8.58541
ltoes 33.3551
371
root 5.8309 3.30794 1.47196 -46.9738 24.3566 -43.2932
lowerback 22.0044 2.57157 5.8901
upperback 9.35366 4.94274 1.69647
thorax -1.69414 2.71629 -2.63103
lowerneck 0.616445 -5.39247 -3.28196
upperneck -7.22807 -6.99844 4.85781
head -2.0918 -3.51428 2.23835
rclavicle -4.21423e-014 -1.01778e-013
rhumerus -21.0502 -27.2141 -2.49389
rradius 16.3515
rwrist 31.4926
rhand -3.84517 -27.2144
rfingers 7.12502
rthumb 21.9026 -55.9946
lclavicle -4.21423e-014 -1.01778e-013
lhumerus -12.5376 -27.769 41.2361
lradius 58.0597
lwrist -8.06899
lhand -34.1151 -18.7621
lfingers 7.12502
lthumb -7.29065 11.0923
rfemur -15.8967 -2.0479 -23.7546
rtibia 123.177
rfoot -18.8283 -4.01246
rtoes 10.9627
lfemur -126.87 24.7786 -62.3885
ltibia 149.512
lfoot 8.00262 -8.72719
ltoes 30.9635
372
root 5.90172 3.28185 1.45955 -48.5893 25.0829 -44.5227
lowerback 21.7898 2.48482 4.86749
upperback 9.51634 4.62968 1.94834
thorax -1.55052 2.53921 -1.70677
lowerneck 1.09698 -5.54809 -3.63751
upperneck -7.25814 -7.20747 5.31382
head -2.15163 -3.62723 2.47235
rclavicle -2.38542e-014 -5.08889e-014
rhumerus -23.044 -27.1437 -2.64977
rradius 16.0373
rwrist 30.8316
rhand -4.25769 -27.6767
rfingers 7.12502
rthumb 21.5065 -56.5027
lclavicle -2.38542e-014 -5.08889e-014
lhumerus -11.767 -28.537 40.9677
lradius 59.1455
lwrist -7.90449
lhand -33.2789 -18.6565
lfingers 7.12502
lthumb -6.48342 11.2243
rfemur -17.1484 -1.68528 -22.174
rtibia 122.681
rfoot -19.1273 -4.29183
rtoes 10.3256
lfemur -125.541 26.2065 -63.1624
ltibia 149.434
lfoot 8.58937 -8.9022
ltoes 28.178
373
root 5.96905 3.27202 1.4444 -50.3577 25.7402 -45.9204
lowerback 21.6589 2.34026 3.81723
upperback 9.70394 4.24704 2.22827
thorax -1.41124 2.32314 -0.726464
lowerneck 1.5726 -5.6618 -4.01537
upperneck -7.27991 -7.36295 5.79187
head -2.20796 -3.71444 2.71953
rclavicle 1.27222e-014 -3.49861e-014
rhumerus -24.9052 -26.6826 -3.21937
rradius 15.755
rwrist 30.0793
rhand -4.21292 -27.9024
rfingers 7.12502
rthumb 21.5495 -56.7236
lclavicle 1.27222e-014 -3.49861e-014
lhumerus -10.983 -29.2354 40.665
lradius 60.0832
lwrist -7.59499
lhand -32.4224 -18.6797
lfingers 7.12502
lthumb -5.65655 11.2248
rfemur -18.3591 -1.46191 -20.4115
rtibia 122.062
rfoot -19.5186 -4.66014
rtoes 9.51083
lfemur -123.876 27.6862 -63.4592
ltibia 149.215
lfoot 8.99233 -9.18276
ltoes 25.2295
374
root 6.03392 3.27619 1.42699 -52.2583 26.3713 -47.4596
lowerback 21.6049 2.1301 2.76836
upperback 9.91346 3.78493 2.47284
thorax -1.26291 2.06478 0.231098
lowerneck 1.98724 -5.75321 -4.36893
upperneck -7.21486 -7.48941 6.31052
head -2.22462 -3.7895 2.97275
rclavicle 6.44062e-014 -1.59028e-014
rhumerus -26.6759 -25.85 -4.25385
rradius 15.5058
rwrist 29.1915
rhand -3.80542 -27.8807
rfingers 7.12502
rthumb 21.9408 -56.6565
lclavicle 6.44062e-014 -1.59028e-014
lhumerus -10.0981 -29.9815 40.1716
lradius 60.8769
lwrist -7.10965
lhand -31.5969 -18.8019
lfingers 7.12502
lthumb -4.85951 11.1224
rfemur -19.5375 -1.45132 -18.6313
rtibia 121.304
rfoot -19.9394 -5.03511
rtoes 8.43727
lfemur -121.686 28.9899 -63.1668
ltibia 148.835
lfoot 9.14698 -9.54967
ltoes 22.574
